<?xml version="1.0" encoding="UTF-8"?>
<svg width="6px" height="10px" viewBox="0 0 6 10" version="1.1" xmlns="http://www.w3.org/2000/svg" xmlns:xlink="http://www.w3.org/1999/xlink">
    <!-- Generator: Sketch 53.2 (72643) - https://sketchapp.com -->
    <title>系统icon/List/跳转箭头@2x</title>
    <desc>Created with Sketch.</desc>
    <g id="系统icon/List/跳转箭头" stroke="none" stroke-width="1" fill="none" fill-rule="evenodd">
        <polygon id="跳转箭头" fill="#C4C2C0" fill-rule="nonzero" points="4.10106666 5.28332093 4.10106812 4.73493249 0.285372206 8.62301323 0.0162972284 8.89719263 0.285356981 9.17138764 0.830863826 9.72730598 1.0984507 10 1.36606014 9.72732909 5.18189008 5.83932789 4.91430326 5.56512533 4.64670753 5.8393188 4.64819578 5.8408353 4.91573932 6.11345718 5.1833349 5.84088863 5.7308093 5.28323999 6 5.00904667 5.73086165 4.73479971 5.72928482 4.73319295 5.46168909 5.00738643 5.72927591 5.28158899 5.73085273 5.27998235 5.99988284 5.0058639 5.73093505 4.73166112 5.1854282 4.17549559 4.91783374 3.90267259 4.6501648 4.17541929 4.64843874 4.1771781 4.91603301 4.45137306 5.18362874 4.17717958 1.35180422 0.272621879 1.08426068 0 0.816665104 0.272568554 0.269190697 0.83021719 0 1.10441051 0.269138355 1.37865747 4.10106666 5.28332093"></polygon>
    </g>
</svg>