<?xml version="1.0" encoding="UTF-8"?>
<svg width="40px" height="40px" viewBox="0 0 40 40" version="1.1" xmlns="http://www.w3.org/2000/svg" xmlns:xlink="http://www.w3.org/1999/xlink">
    <!-- Generator: Sketch 53.2 (72643) - https://sketchapp.com -->
    <title>1_2_yiwen copy@2x</title>
    <desc>Created with Sketch.</desc>
    <g id="1_2_yiwen-copy" stroke="none" stroke-width="1" fill="none" fill-rule="evenodd">
        <g id="Group-59">
            <g id="Group-58" transform="translate(13.000000, 13.000000)">
                <path d="M7.24911328,2.71761328 C8.01711328,2.71761328 8.62911328,2.92161328 9.09711328,3.35361328 C9.54111328,3.76161328 9.76911328,4.32561328 9.76911328,5.04561328 C9.76911328,5.58561328 9.61311328,6.05361328 9.31311328,6.44961328 C9.19311328,6.59361328 8.86911328,6.90561328 8.34111328,7.37361328 C8.07711328,7.60161328 7.89711328,7.81761328 7.77711328,8.03361328 C7.62111328,8.29761328 7.54911328,8.58561328 7.54911328,8.90961328 L7.54911328,9.18561328 L6.58911328,9.18561328 L6.58911328,8.90961328 C6.58911328,8.51361328 6.66111328,8.16561328 6.80511328,7.86561328 C6.97311328,7.50561328 7.36911328,7.04961328 8.01711328,6.47361328 C8.20911328,6.28161328 8.35311328,6.13761328 8.42511328,6.04161328 C8.66511328,5.74161328 8.78511328,5.42961328 8.78511328,5.09361328 C8.78511328,4.61361328 8.64111328,4.24161328 8.37711328,3.97761328 C8.10111328,3.68961328 7.70511328,3.55761328 7.20111328,3.55761328 C6.60111328,3.55761328 6.15711328,3.74961328 5.86911328,4.14561328 C5.60511328,4.48161328 5.47311328,4.93761328 5.47311328,5.52561328 L4.52511328,5.52561328 C4.52511328,4.68561328 4.75311328,4.01361328 5.23311328,3.50961328 C5.71311328,2.98161328 6.38511328,2.71761328 7.24911328,2.71761328 Z M7.06911328,10.0256133 C7.27311328,10.0256133 7.45311328,10.0856133 7.59711328,10.2296133 C7.72911328,10.3616133 7.80111328,10.5296133 7.80111328,10.7336133 C7.80111328,10.9496133 7.72911328,11.1176133 7.58511328,11.2496133 C7.44111328,11.3816133 7.27311328,11.4536133 7.06911328,11.4536133 C6.86511328,11.4536133 6.69711328,11.3816133 6.55311328,11.2496133 C6.40911328,11.1056133 6.34911328,10.9376133 6.34911328,10.7336133 C6.34911328,10.5296133 6.40911328,10.3616133 6.55311328,10.2296133 C6.69711328,10.0856133 6.86511328,10.0256133 7.06911328,10.0256133 Z" id="？" fill="#FF8833" fill-rule="nonzero"></path>
                <circle id="Oval" stroke="#FF8833" stroke-linecap="square" cx="7" cy="7" r="7"></circle>
            </g>
        </g>
    </g>
</svg>