<?xml version="1.0" encoding="UTF-8"?>
<svg width="40px" height="40px" viewBox="0 0 40 40" version="1.1" xmlns="http://www.w3.org/2000/svg" xmlns:xlink="http://www.w3.org/1999/xlink">
    <!-- Generator: Sketch 53.2 (72643) - https://sketchapp.com -->
    <title>1-4_yidong@2x</title>
    <desc>Created with Sketch.</desc>
    <g id="1-4_yidong" stroke="none" stroke-width="1" fill="none" fill-rule="evenodd">
        <g id="Group-56">
            <g id="Group-55" transform="translate(11.000000, 11.000000)">
                <g id="Group-54" stroke="#2A2827" stroke-linecap="round">
                    <g id="Group-53" transform="translate(6.000000, 0.000000)">
                        <g id="Group-52">
                            <path d="M3,1.5 L3,5.5" id="Line-6"></path>
                            <path d="M0.375,3.28048689 L3,0.655486886" id="Line-7"></path>
                            <path d="M3.375,3.28048689 L6,0.655486886" id="Line-7" transform="translate(4.500000, 1.875000) scale(-1, 1) translate(-4.500000, -1.875000) "></path>
                        </g>
                        <g id="Group-52-Copy" transform="translate(3.000000, 15.000000) scale(1, -1) translate(-3.000000, -15.000000) translate(0.000000, 12.000000)" stroke-linejoin="round">
                            <path d="M3,1.5 L3,5.5" id="Line-6"></path>
                            <path d="M0.375,3.28048689 L3,0.655486886" id="Line-7"></path>
                            <path d="M3.375,3.28048689 L6,0.655486886" id="Line-7" transform="translate(4.500000, 1.875000) scale(-1, 1) translate(-4.500000, -1.875000) "></path>
                        </g>
                    </g>
                    <g id="Group-52" transform="translate(3.000000, 9.000000) rotate(-90.000000) translate(-3.000000, -9.000000) translate(0.000000, 6.000000)" stroke-linejoin="round">
                        <path d="M3,1.5 L3,5.5" id="Line-6"></path>
                        <path d="M0.375,3.28048689 L3,0.655486886" id="Line-7"></path>
                        <path d="M3.375,3.28048689 L6,0.655486886" id="Line-7" transform="translate(4.500000, 1.875000) scale(-1, 1) translate(-4.500000, -1.875000) "></path>
                    </g>
                    <g id="Group-52-Copy" transform="translate(15.000000, 9.000000) scale(1, -1) rotate(90.000000) translate(-15.000000, -9.000000) translate(12.000000, 6.000000)" stroke-linejoin="round">
                        <path d="M3,1.5 L3,5.5" id="Line-6"></path>
                        <path d="M0.375,3.28048689 L3,0.655486886" id="Line-7"></path>
                        <path d="M3.375,3.28048689 L6,0.655486886" id="Line-7" transform="translate(4.500000, 1.875000) scale(-1, 1) translate(-4.500000, -1.875000) "></path>
                    </g>
                </g>
                <g id="Group-53" transform="translate(9.000000, 10.500000) rotate(-90.000000) translate(-9.000000, -10.500000) translate(6.000000, 1.500000)"></g>
            </g>
        </g>
    </g>
</svg>