<?xml version="1.0" encoding="UTF-8"?>
<svg width="130px" height="130px" viewBox="0 0 130 130" version="1.1" xmlns="http://www.w3.org/2000/svg" xmlns:xlink="http://www.w3.org/1999/xlink">
    <!-- Generator: Sketch 53.2 (72643) - https://sketchapp.com -->
    <title>weikongye_1</title>
    <desc>Created with Sketch.</desc>
    <defs>
        <linearGradient x1="98.5475907%" y1="50.982103%" x2="4.55663456%" y2="50.8762859%" id="linearGradient-1">
            <stop stop-color="#DEE0E4" offset="0%"></stop>
            <stop stop-color="#E6E7E9" offset="100%"></stop>
        </linearGradient>
        <linearGradient x1="50%" y1="1.66279561%" x2="50%" y2="47.8871991%" id="linearGradient-2">
            <stop stop-color="#8F93A0" offset="0%"></stop>
            <stop stop-color="#B2B5B8" offset="100%"></stop>
        </linearGradient>
        <linearGradient x1="43.7993804%" y1="0%" x2="53.155102%" y2="99.1844383%" id="linearGradient-3">
            <stop stop-color="#DDE3EE" offset="0%"></stop>
            <stop stop-color="#B5C2DA" offset="100%"></stop>
        </linearGradient>
        <linearGradient x1="44.2777484%" y1="0%" x2="44.2777484%" y2="100%" id="linearGradient-4">
            <stop stop-color="#A8B3D5" offset="0%"></stop>
            <stop stop-color="#B7BED7" offset="100%"></stop>
        </linearGradient>
        <linearGradient x1="50%" y1="27.063978%" x2="50%" y2="100%" id="linearGradient-5">
            <stop stop-color="#DBE3F4" offset="0%"></stop>
            <stop stop-color="#B0C2DE" offset="100%"></stop>
        </linearGradient>
    </defs>
    <g id="weikongye_1" stroke="none" stroke-width="1" fill="none" fill-rule="evenodd">
        <g id="Group-4">
            <g id="商品列表为空" transform="translate(10.000000, 17.000000)">
                <g id="路径-14" transform="translate(0.000000, 68.000000)">
                    <ellipse id="椭圆形" fill="url(#linearGradient-1)" opacity="0.804478237" cx="54.5" cy="14" rx="54.5" ry="13"></ellipse>
                    <path d="M84.7411592,12.6481839 C87.8590358,11.1928619 91.5871994,8.1174939 93.1272786,4.79622396 C88.8811849,3.78873698 88.989759,4.58840978 86.905314,4 L82,4.34692611 L84.0881524,9.6713393 L84.7411592,12.6481839 Z" id="路径-20" fill="url(#linearGradient-2)" opacity="0.233235677"></path>
                    <path d="M40.6008301,16.1464341 L13.1064453,5.77490234 C26.5501302,2.26057943 38.9608154,0.668945312 50.338501,1 C59.9092684,1 68.8851425,4.88272798 77.2661231,12.6481839 L40.6008301,16.1464341 Z" id="路径-3" fill="#D2D7E0" opacity="0.321800595"></path>
                </g>
                <g id="编组-6" transform="translate(19.000000, 0.000000)">
                    <path d="M3.57670194,0 C6.23881131,0.539713542 8.08614204,3.77327474 9.11869412,9.70068359 C10.1512462,15.6280924 13.4175222,39.449056 18.9175222,81.1635742 C19.6131603,83.6469727 21.4248465,84.5646159 24.3525808,83.9165039 C27.2803152,83.2683919 41.7972423,81.2182617 67.9033621,77.7661133 C69.4834402,77.2543945 69.8784597,75.1508789 69.0884207,71.4555664 C68.2983816,67.7602539 65.4079194,47.175293 60.417034,9.70068359 C59.5622163,7.08219401 58.1938894,5.55957031 56.3120535,5.1328125 C54.4302176,4.70605469 36.851767,2.99511719 3.57670194,0 Z" id="路径-55" fill="url(#linearGradient-3)"></path>
                    <path d="M18.8433838,80.2929687 C19.6900635,83.0962004 21.3760579,84.1661513 23.9013672,83.5028212 C27.172309,82.6733941 27.1955566,80.0516357 27.1704096,77.8954801 C27.0313557,77.335514 27.8576315,75.9647731 28.7628038,76.0045573 C51.6229384,74.2088035 66.8414474,72.692138 74.418331,71.4545607 C75.0373486,71.4016071 75.3595297,71.6187754 75.3848741,72.1060655 C75.3178168,75.9871781 74.4588397,78.1698495 72.8079427,78.6540799 C72.2958984,79.3113064 55.9937066,81.263274 23.9013672,84.5099826 C22.4394113,84.6038547 19.563151,84.7725694 18.8433838,80.2929687 Z" id="路径-56" fill="url(#linearGradient-4)"></path>
                    <path d="M6.31762695,1.86364746 C4.48136393,-0.606486003 3.03771973,-0.606486003 1.98669434,1.86364746 C1.13030074,4.40149306 0.761729778,5.94438043 0.880981445,6.49230957 C0.960327148,7.42222904 1.96870981,7.88718878 3.90612942,7.88718878 C5.84354904,7.88718878 7.45446977,7.88657427 8.7388916,7.88534525 C8.33660839,5.31362202 7.22009277,3.06188965 6.31762695,1.86364746 Z" id="路径-57" fill="#9AA1B7"></path>
                    <path d="M19.8658179,12.9285644 L53.957151,15.1968698 C54.9121355,15.2604107 55.6882501,15.9916275 55.808519,16.941137 L57.0951515,27.0989608 C57.2339519,28.1947748 56.4581391,29.1956274 55.3623251,29.3344278 C55.254607,29.3480719 55.1459566,29.3529213 55.0374512,29.3489281 L21.0554894,28.0983347 C20.0753793,28.062265 19.2660363,27.3208031 19.1444667,26.3475931 L17.7484629,15.1720575 C17.6115485,14.0760063 18.3890826,13.0764902 19.4851338,12.9395758 C19.6113893,12.9238044 19.7388618,12.9201173 19.8658179,12.9285644 Z" id="矩形" fill="#F4F4F5"></path>
                    <path d="M22.1624078,32.8400404 L56.3245359,33.7053626 C57.3087138,33.7302917 58.1283784,34.4677455 58.2568029,35.4438269 L59.6050721,45.691254 C59.7491601,46.7863852 58.9781873,47.7909709 57.883056,47.9350589 C57.796557,47.9464397 57.709406,47.9521484 57.6221616,47.9521484 L23.627131,47.9521484 C22.6269891,47.9521484 21.7806022,47.2133443 21.6454705,46.2223734 L20.1301037,35.1096241 C19.9808626,34.0151832 20.7470984,33.0069797 21.8415393,32.8577386 C21.9478476,32.8432421 22.05515,32.8373236 22.1624078,32.8400404 Z" id="矩形备份-5" fill="#F4F4F5"></path>
                    <path d="M24.7125332,53.3855268 L58.3480711,52.4419281 C59.3735545,52.4131596 60.2545121,53.1649649 60.3873251,54.1822183 L61.7520748,64.6352364 C61.8950741,65.7305103 61.123103,66.7343292 60.0278291,66.8773285 C59.9814214,66.8833875 59.9348153,66.8878157 59.8880968,66.8906048 L26.4131489,68.8891125 C25.3663824,68.9516061 24.449086,68.195001 24.3112985,67.1554626 L22.7859589,55.6475356 C22.6408211,54.552543 23.4108305,53.5472186 24.5058231,53.4020808 C24.5743939,53.3929919 24.6433899,53.3874665 24.7125332,53.3855268 Z" id="矩形备份-9" fill="#F4F4F5"></path>
                    <path d="M24.0766565,15.0907789 L32.9562476,15.8098642 C33.8938378,15.8857919 34.6517994,16.6048225 34.777014,17.537111 L35.5948217,23.6261183 C35.7418549,24.720858 34.9735871,25.7275138 33.8788474,25.8745471 C33.7510297,25.8917141 33.6218512,25.896478 33.4931163,25.888772 L24.6403507,25.3588556 C23.6857818,25.3017162 22.905216,24.5768353 22.7777121,23.6290962 L21.9330789,17.35092 C21.7858027,16.256213 22.5538472,15.2493867 23.6485542,15.1021105 C23.7904381,15.0830222 23.9339615,15.0792232 24.0766565,15.0907789 Z" id="矩形备份" fill="#DADDE4" opacity="0.443173363"></path>
                    <path d="M26.504791,34.8512179 L35.3460341,35.1587731 C36.3057016,35.1921564 37.106202,35.9028614 37.2529958,36.8518228 L38.1567553,42.6942587 C38.3256116,43.7858453 37.5775908,44.8076362 36.4860042,44.9764924 C36.3848422,44.992141 36.2826281,45 36.1802629,45 L27.1936804,45 C26.1837733,45 25.332323,44.247101 25.2087171,43.2447867 L24.4502969,37.0947957 C24.315105,35.9985307 25.0942086,35.0002376 26.1904736,34.8650456 C26.2947204,34.8521898 26.399818,34.8475663 26.504791,34.8512179 Z" id="矩形备份-6" fill="#DADDE4" opacity="0.443173363"></path>
                    <path d="M29.0336154,55.9160156 L37.7249177,55.9160156 C38.7071096,55.9160156 39.5439422,56.6292169 39.6996317,57.598991 L40.6355373,63.4286516 C40.8106252,64.5192561 40.0684524,65.5453024 38.9778479,65.7203903 C38.8863193,65.7350845 38.7938798,65.7433973 38.701198,65.7452687 L29.9296802,65.9223784 C28.9189212,65.9427871 28.0518719,65.2057076 27.909295,64.2048469 L27.0536049,58.1980766 C26.897827,57.104547 27.6580249,56.0917831 28.7515545,55.9360051 C28.8449854,55.9226955 28.9392413,55.9160156 29.0336154,55.9160156 Z" id="矩形备份-11" fill="#DADDE4" opacity="0.443173363"></path>
                    <path d="M38.8167456,19.0449728 L47.8811147,19.5440884 C48.3373008,19.5692076 48.6943359,19.9464431 48.6943359,20.4033203 L48.6943359,20.4033203 C48.6943359,20.8287067 48.3494921,21.1735505 47.9241057,21.1735505 C47.9097789,21.1735505 47.8954549,21.1731508 47.8811504,21.1723518 L38.9685263,20.6745247 C38.4991131,20.648305 38.1195374,20.2825693 38.0759083,19.8144531 L38.0759083,19.8144531 C38.0397701,19.4267105 38.3248018,19.0830872 38.7125444,19.046949 C38.7471818,19.0437207 38.7820107,19.0430602 38.8167456,19.0449728 Z" id="矩形备份-3" fill="#DCE0E6" opacity="0.595168341"></path>
                    <path d="M41.1672039,38 L50.1855469,38 C50.6353569,38 51,38.3646431 51,38.8144531 L51,38.8144531 C51,39.2642632 50.6353569,39.6289062 50.1855469,39.6289062 L41.3190205,39.6289062 C40.8554759,39.6289062 40.468146,39.2759974 40.4251293,38.8144531 L40.4251293,38.8144531 C40.386932,38.4046166 40.688205,38.0414134 41.0980415,38.0032161 C41.1210333,38.0010732 41.1441124,38 41.1672039,38 Z" id="矩形备份-7" fill="#DCE0E6" opacity="0.595168341"></path>
                    <path d="M43.8178683,58.1633949 L52.7661731,58.0136294 C53.2084558,58.006227 53.5729976,58.3587672 53.5804,58.8010499 C53.5804748,58.8055173 53.5805122,58.8099852 53.5805122,58.8144531 L53.5805122,58.8144531 C53.5805122,59.2664828 53.2181409,59.6350595 52.7661764,59.642734 L43.9696815,59.7921019 C43.5082815,59.7999367 43.118732,59.4510117 43.0759083,58.9915365 L43.0759083,58.9915365 C43.0370639,58.5747585 43.3434397,58.2054036 43.7602177,58.1665593 C43.7793874,58.1647726 43.7986182,58.1637171 43.8178683,58.1633949 Z" id="矩形备份-12" fill="#DCE0E6" opacity="0.595168341"></path>
                    <path d="M39.4615749,23.036696 L51.9336156,23.5951594 C52.3887455,23.6155388 52.7472534,23.9904589 52.7472534,24.4460449 L52.7472534,24.4460449 C52.7472534,24.875893 52.3987927,25.2243537 51.9689446,25.2243537 C51.9571714,25.2243537 51.9453998,25.2240866 51.9336387,25.2235525 L39.6578407,24.6661191 C39.1849259,24.6446444 38.7968324,24.2844551 38.7401954,23.8144531 L38.7401954,23.8144531 C38.6942558,23.4332229 38.9660625,23.0869334 39.3472927,23.0409938 C39.3852041,23.0364253 39.4234275,23.0349879 39.4615749,23.036696 Z" id="矩形备份-4" fill="#DCE0E6" opacity="0.607003348"></path>
                    <path d="M41.8203452,42 L54.407844,42 C54.857654,42 55.2222971,42.3646431 55.2222971,42.8144531 L55.2222971,42.8144531 C55.2222971,43.2642632 54.857654,43.6289062 54.407844,43.6289062 L42.0166343,43.6289062 C41.5485053,43.6289062 41.1541506,43.2792197 41.0981445,42.8144531 L41.0981445,42.8144531 C41.0500804,42.4155927 41.334457,42.0532888 41.7333174,42.0052247 C41.7621961,42.0017447 41.7912576,42 41.8203452,42 Z" id="矩形备份-8" fill="#DCE0E6" opacity="0.607003348"></path>
                    <path d="M44.4883438,62.187392 L57.4529349,61.4640132 C57.877686,61.4403136 58.2412273,61.7654301 58.2649269,62.1901813 C58.2657242,62.2044714 58.2661231,62.2187809 58.2661231,62.2330933 L58.2661231,62.2330933 C58.2661231,62.6901568 57.9093037,63.067727 57.4529695,63.0935359 L44.684598,63.8156772 C44.2240934,63.841722 43.822599,63.5054741 43.7674171,63.0475464 L43.7674171,63.0475464 C43.7165855,62.6257197 44.0173364,62.2425544 44.4391631,62.1917227 C44.4555061,62.1897533 44.4719081,62.188309 44.4883438,62.187392 Z" id="矩形备份-13" fill="#DCE0E6" opacity="0.607003348"></path>
                    <path d="M12.0231934,29.4588167 L18.8433838,80.6481839 C19.5781657,82.9395314 20.9557292,84.0701497 22.9760742,84.0400391 C26.6255332,84.3121045 26.8302565,76.6484485 28.4128418,76.2602539 C34.1421712,75.7677409 49.4773343,74.1632479 74.418331,71.4467751" id="路径-2" stroke="url(#linearGradient-5)" stroke-width="0.5"></path>
                </g>
            </g>
        </g>
    </g>
</svg>