<?xml version="1.0" encoding="UTF-8"?>
<svg width="375px" height="50px" viewBox="0 0 375 50" version="1.1" xmlns="http://www.w3.org/2000/svg" xmlns:xlink="http://www.w3.org/1999/xlink">
    <!-- Generator: Sketch 55 (78076) - https://sketchapp.com -->
    <title>ikang_2@2x</title>
    <desc>Created with Sketch.</desc>
    <g id="ikang_2" stroke="none" stroke-width="1" fill="none" fill-rule="evenodd">
        <g id="编组">
            <rect id="Rectangle" fill-opacity="0.8" fill="#000000" x="0" y="0" width="375" height="50"></rect>
            <path d="M295,8.5 C286.439586,8.5 279.5,15.4395864 279.5,24 C279.5,32.5604136 286.439586,39.5 295,39.5 L343,39.5 C351.560414,39.5 358.5,32.5604136 358.5,24 C358.5,15.4395864 351.560414,8.5 343,8.5 L295,8.5 Z" id="Rectangle" stroke="#FC7D3D" fill="#FF8833"></path>
            <text id="Text" font-family="PingFangSC-Regular, PingFang SC" font-size="12" font-weight="normal" line-spacing="22" fill="#FFFFFF">
                <tspan x="295" y="27">立即下载</tspan>
            </text>
            <rect id="Rectangle" fill="#FF8833" x="16" y="9" width="32" height="32" rx="4"></rect>
            <path d="M28.0140663,27.1048961 L25.8469914,24.0685919 L25.8286441,24.0685919 L25.8286441,27.1048961 L24.5086816,27.1048961 L24.5086816,21 L25.8286441,21 L25.8286441,23.7640002 L25.8469914,23.7640002 L27.9772555,21 L29.4638535,21 L27.1880882,23.9169752 L29.514599,27.1048961 L28.0140663,27.1048961 Z M32.5724366,24.9123162 C31.6356778,24.9530678 30.8108609,25.0303913 30.8108609,25.7116736 C30.8108609,26.1420727 31.1854715,26.3864775 31.8508525,26.3864775 C32.1230432,26.3864775 32.4426119,26.345099 32.5724366,26.2944208 L32.5724366,24.9123162 Z M31.8895212,27.2060017 C30.3693638,27.2060017 29.6123624,26.6663049 29.6123624,25.7389458 C29.6123624,24.4979043 31.0436862,24.2528725 32.5724366,24.1773254 L32.5724366,23.9424293 C32.5724366,23.4711742 32.2089737,23.2936437 31.6251107,23.2936437 C31.1462222,23.2936437 30.5663073,23.4287507 30.2125987,23.5622904 L29.8931462,22.7876975 C30.3150186,22.6270946 31.0346286,22.4582368 31.7641091,22.4582368 C33.0579441,22.4582368 33.7803411,22.9145497 33.7803411,24.0786858 L33.7803411,26.8770635 C33.4063111,27.0530267 32.6484967,27.2060017 31.8895212,27.2060017 Z M37.6420123,27.1048961 L37.6420123,24.1117468 C37.6420123,23.6548069 37.3316173,23.3768604 36.7508895,23.3768604 C36.4531519,23.3768604 36.1612204,23.428688 35.9938881,23.4866806 L35.9938881,27.1048961 L34.7177037,27.1048961 L34.7177037,22.7877393 C35.2518664,22.5916094 35.9001774,22.4581741 36.731381,22.4581741 C38.2319137,22.4581741 38.9234222,23.0142761 38.9234222,23.9914774 L38.9234222,27.1048961 L37.6420123,27.1048961 Z M42.7343828,23.4369951 C42.6038613,23.3855854 42.3703393,23.3436845 42.1079028,23.3436845 C41.4058272,23.3436845 40.9073141,23.7640524 40.9073141,24.7170118 C40.9073141,25.6126056 41.3685519,26.0577379 42.0685373,26.0577379 C42.3061236,26.0577379 42.5855139,25.9992228 42.7343828,25.9306766 L42.7343828,23.4369951 Z M41.7694062,29 C40.9636334,29 40.3076584,28.8476519 39.8503686,28.6475513 L40.2144121,27.7450612 C40.5504702,27.9049326 41.077201,28.024784 41.6393492,28.024784 C42.3885705,28.024784 42.7343828,27.675888 42.7343828,27.0447614 L42.7343828,26.7667104 C42.4930806,26.8671264 42.1263663,26.9265819 41.7994819,26.9265819 C40.5137755,26.9265819 39.635194,26.1254482 39.635194,24.7595397 C39.635194,23.225714 40.6369813,22.4582264 42.2208898,22.4582264 C42.9333003,22.4582264 43.5893915,22.6011703 44,22.7863286 L44,27.0447614 C44,28.3259275 43.1287342,29 41.7694062,29 Z M22.222233,22.4741195 C22.1525596,22.4741195 22.0843958,22.4582368 22.0226187,22.4333679 C21.8770013,22.3690014 21.7813165,22.2385964 21.756118,22.0626333 C21.7301066,21.9032843 21.7668012,21.7266942 21.858654,21.5620162 C22.0055487,21.2904436 22.2786684,21.1062257 22.5279831,21.1062257 C22.5980048,21.1062257 22.6650074,21.1204365 22.7260878,21.1486491 C22.8697311,21.2113438 22.9675061,21.3423757 22.9923562,21.5184433 C23.0198772,21.6759115 22.9817891,21.853651 22.8926072,22.0195829 C22.7457124,22.2905285 22.4753796,22.4741195 22.222233,22.4741195 Z M21.0464944,27.3281205 C21.0174638,27.3281205 20.9865753,27.3269711 20.9584737,27.3227915 C20.7485245,27.3086852 20.5955914,27.2737851 20.3747267,27.133349 C20.3002923,27.0966726 19.9153468,26.837639 20.0582934,25.856885 C20.0656091,25.8138346 20.1344697,25.4377709 20.4475354,24.6602522 C20.4495095,24.6519974 20.4960746,24.550432 20.5955914,24.3414497 C20.5858371,24.3456293 20.5741088,24.3456293 20.564819,24.349809 C20.4625152,24.3745734 20.3194525,24.3875303 20.2132006,24.3875303 C20.180338,24.3875303 20.150959,24.3875303 20.1279668,24.385127 L20,24.3698713 L20.1298248,23.8597454 L20.1862602,23.8378023 C20.365437,23.7682112 20.5071062,23.6955898 20.5071062,23.6955898 C20.7445764,23.5975771 20.9664861,23.426943 21.1605265,23.2746994 C21.4178536,23.0751213 21.6408085,22.9033378 21.858654,22.9033378 C21.9149733,22.9033378 21.9688541,22.9162947 22.0201801,22.9404322 C22.3094408,23.0728225 22.1795,23.3372896 22.0791703,23.5503471 C22.061868,23.5822169 22.0482817,23.6165945 22.0310956,23.652644 L22.0226187,23.6642425 C22.0201801,23.675423 21.5688126,24.5303697 21.3044021,25.1077879 C20.7905608,26.2334711 21.0981688,26.4177935 21.0981688,26.4177935 L21.1225545,26.4248989 L21.1330055,26.4360795 C21.1330055,26.4360795 21.2170781,26.4963709 21.3882424,26.4963709 C21.554878,26.4963709 21.752402,26.4425579 21.9688541,26.3338871 C22.8697311,25.7678585 23.4732188,24.7110349 23.6654013,24.2299576 L23.7233463,24.0887901 L24.0735712,24.3533617 L24.0434956,24.4235797 C24.0140005,24.5043514 23.2021893,26.459172 21.9255404,27.0559211 C21.8376358,27.1191382 21.4651154,27.3281205 21.0464944,27.3281205 Z" id="形状结合" fill="#FEFEFE"></path>
        </g>
    </g>
</svg>