<?xml version="1.0" encoding="UTF-8"?>
<svg width="375px" height="50px" viewBox="0 0 375 50" version="1.1" xmlns="http://www.w3.org/2000/svg" xmlns:xlink="http://www.w3.org/1999/xlink">
    <!-- Generator: Sketch 55 (78076) - https://sketchapp.com -->
    <title>tijianbao_2@2x</title>
    <desc>Created with Sketch.</desc>
    <g id="tijianbao_2" stroke="none" stroke-width="1" fill="none" fill-rule="evenodd">
        <g id="编组备份">
            <rect id="Rectangle" fill-opacity="0.8" fill="#000000" x="0" y="0" width="375" height="50"></rect>
            <path d="M295,8.5 C286.439586,8.5 279.5,15.4395864 279.5,24 C279.5,32.5604136 286.439586,39.5 295,39.5 L343,39.5 C351.560414,39.5 358.5,32.5604136 358.5,24 C358.5,15.4395864 351.560414,8.5 343,8.5 L295,8.5 Z" id="Rectangle" stroke="#FC7D3D" fill="#FF8833"></path>
            <text id="Text" font-family="PingFangSC-Regular, PingFang SC" font-size="12" font-weight="normal" line-spacing="22" fill="#FFFFFF">
                <tspan x="295" y="27">立即下载</tspan>
            </text>
            <rect id="Rectangle" fill="#FF8833" x="16" y="9" width="32" height="32" rx="4"></rect>
            <path d="M39.4515568,27.0148966 C39.4515568,27.4038157 39.1395605,27.7159247 38.7618138,27.7159247 L34.2991108,27.7159247 L34.2991108,32.2397663 C34.2991108,32.625605 33.9898582,32.9392045 33.6105436,32.9392045 L29.8789349,32.9392045 C29.4984444,32.9392045 29.187624,32.625605 29.187624,32.2397663 L29.187624,27.7159247 L24.725313,27.7159247 C24.3502119,27.7159247 24.0367458,27.4038157 24.0367458,27.0148966 L24.0367458,23.2308358 C24.0367458,22.8492699 24.3502119,22.53259 24.725313,22.53259 L29.187624,22.53259 L29.187624,18.0118287 C29.187624,17.6228103 29.4984444,17.3092108 29.8789349,17.3092108 L33.6105436,17.3092108 C33.9898582,17.3092108 34.2991108,17.6228103 34.2991108,18.0118287 L34.2991108,22.53259 L38.7618138,22.53259 C39.1395605,22.53259 39.4515568,22.8492699 39.4515568,23.2308358 L39.4515568,27.0148966 Z M43.0315769,28.8830792 C43.4426398,27.6595841 43.6662502,26.3581859 43.6662502,25.0000497 C43.6662502,18.3759062 38.3648612,13 31.8279317,13 C25.29257,13 20,18.3759062 20,25.0000497 C20,31.6272735 25.29257,37 31.8279317,37 L32.4174322,37 L32.4522182,37 L33.2618015,37 C38.5003797,37 44,35.5829397 44,35.5829397 C41.3772323,34.3388758 42.3809314,30.8164459 43.0315769,28.8830792 L43.0315769,28.8830792 Z" id="Fill-283" fill="#FEFEFE"></path>
        </g>
    </g>
</svg>