<?xml version="1.0" encoding="UTF-8"?>
<svg width="12px" height="12px" viewBox="0 0 12 12" version="1.1" xmlns="http://www.w3.org/2000/svg" xmlns:xlink="http://www.w3.org/1999/xlink">
    <!-- Generator: Sketch 53.2 (72643) - https://sketchapp.com -->
    <title>xinxi_icon</title>
    <desc>Created with Sketch.</desc>
    <g id="xinxi_icon" stroke="none" stroke-width="1" fill="none" fill-rule="evenodd">
        <g id="Group-21">
            <circle id="Oval" fill="#FFB44C" cx="6" cy="6" r="6"></circle>
            <path d="M6.00808594,1.49414062 C6.21208594,1.49414062 6.38008594,1.55414062 6.52408594,1.69814062 C6.66808594,1.81814062 6.74008594,1.98614062 6.74008594,2.20214062 C6.74008594,2.40614062 6.66808594,2.57414062 6.52408594,2.71814062 C6.38008594,2.85014062 6.21208594,2.92214062 6.00808594,2.92214062 C5.80408594,2.92214062 5.63608594,2.85014062 5.49208594,2.71814062 C5.34808594,2.57414062 5.28808594,2.40614062 5.28808594,2.20214062 C5.28808594,1.98614062 5.34808594,1.81814062 5.49208594,1.69814062 C5.63608594,1.55414062 5.80408594,1.49414062 6.00808594,1.49414062 Z M5.52808594,3.83414062 L6.48808594,3.83414062 L6.48808594,10.0381406 L5.52808594,10.0381406 L5.52808594,3.83414062 Z" id="i" fill="#FFFFFF" fill-rule="nonzero"></path>
        </g>
    </g>
</svg>